<svg width="17" height="15" viewBox="0 0 17 15" fill="none" xmlns="http://www.w3.org/2000/svg">
<path fill-rule="evenodd" clip-rule="evenodd" d="M16.1696 0.708488C16.7284 1.04869 16.8849 1.74529 16.5195 2.26549L8.30288 13.9655C8.20715 14.1018 8.08076 14.2172 7.93246 14.3035C7.78415 14.3899 7.61747 14.4453 7.44392 14.4658C7.27038 14.4864 7.09411 14.4716 6.92731 14.4225C6.76051 14.3734 6.60714 14.2912 6.47782 14.1815L1.16115 9.68149C0.924002 9.48074 0.782219 9.20051 0.766991 8.90244C0.751763 8.60437 0.864338 8.31288 1.07995 8.09209C1.29556 7.87129 1.59655 7.73929 1.9167 7.72511C2.23685 7.71093 2.54994 7.81575 2.78708 8.01649L7.05588 11.6291L14.4973 1.03429C14.6727 0.784653 14.9474 0.610096 15.261 0.549C15.5746 0.487903 15.9014 0.545271 16.1696 0.708488V0.708488Z" fill="#484848" fill-opacity="0.8"/>
</svg>
