<svg aria-hidden="true" style="position: absolute; width: 0; height: 0; overflow: hidden;" version="1.1" xmlns="http://www.w3.org/2000/svg" xmlns:xlink="http://www.w3.org/1999/xlink">
<defs>
<symbol id="icon-tell" width="40" height="40" viewBox="0 0 40 40" fill="">
<path fill="transparent" d="M26.2625 24.6418V26.7035C26.2633 26.8949 26.2203 27.0843 26.1362 27.2597C26.0522 27.435 25.9288 27.5925 25.7742 27.7218C25.6195 27.8512 25.4369 27.9497 25.2381 28.0111C25.0392 28.0724 24.8285 28.0951 24.6195 28.0779C22.3003 27.8481 20.0726 27.1255 18.1153 25.9682C16.2943 24.9131 14.7504 23.5053 13.5933 21.8449C12.3196 20.0521 11.5269 18.0109 11.2796 15.8867C11.2607 15.6967 11.2855 15.5052 11.3523 15.3243C11.4191 15.1435 11.5264 14.9773 11.6675 14.8364C11.8086 14.6955 11.9803 14.5829 12.1717 14.5058C12.3632 14.4287 12.5701 14.3888 12.7794 14.3886H15.0404C15.4061 14.3853 15.7607 14.5034 16.038 14.7209C16.3154 14.9384 16.4965 15.2404 16.5477 15.5706C16.6431 16.2304 16.8201 16.8782 17.0753 17.5017C17.1767 17.7477 17.1986 18.015 17.1385 18.272C17.0784 18.529 16.9387 18.7649 16.7361 18.9517L15.779 19.8245C16.8518 21.5449 18.4141 22.9695 20.301 23.9478L21.2581 23.075C21.463 22.8902 21.7217 22.7629 22.0036 22.7081C22.2854 22.6533 22.5786 22.6733 22.8484 22.7658C23.5321 22.9984 24.2426 23.1598 24.9662 23.2468C25.3323 23.2939 25.6666 23.462 25.9056 23.7193C26.1446 23.9765 26.2716 24.3048 26.2625 24.6418Z" stroke="" stroke-width="1.5" stroke-linecap="round" stroke-linejoin="round"/>
<path fill="transparent" d="M27.9997 18.8067C27.9997 14.7135 24.3193 11.4472 20.2725 11.8946" stroke="" stroke-width="1.5" stroke-linecap="round" stroke-linejoin="round"/>
<path fill="transparent" d="M24.9088 18.808C24.9088 16.5335 22.7006 14.7186 20.2725 14.9672" stroke="" stroke-width="1.5" stroke-linecap="round" stroke-linejoin="round"/>
<circle opacity="0.8" cx="20" cy="20" r="19.5" stroke="" fill="transparent"/>
</symbol>

<symbol id="icon-next" width="11" height="11" viewBox="0 0 10 18" fill="none">
<path opacity="0.8" d="M1 1L8.77819 8.77816L1 16.5563" stroke="" stroke-width="1.5" stroke-linecap="round"/>
</symbol>

<symbol id="icon-play" width="23" height="26" viewBox="0 0 23 26" fill="none">
<path d="M21.5 10.4019C23.5 11.5566 23.5 14.4434 21.5 15.5981L4.99999 25.1244C2.99999 26.2791 0.499999 24.8357 0.499999 22.5263L0.5 3.47372C0.5 1.16431 3 -0.279058 5 0.875643L21.5 10.4019Z" fill="white"/>
</symbol>

<symbol id="icon-cross" width="20" height="20" viewBox="0 0 20 20" fill="none">
<path d="M9.89844 19L9.89844 0.999999" stroke="#4D4D4D" stroke-linecap="round"/>
<path d="M1 9.89966L19 9.89966" stroke="#4D4D4D" stroke-linecap="round"/>
</symbol>

<symbol id="icon-instagram" width="57" height="57" viewBox="0 0 57 57" fill="none">
<path d="M48.554 8.3306C43.182 2.95844 36.0394 0 28.4423 0C20.8452 0 13.7026 2.95844 8.3306 8.3306C2.95844 13.7026 0 20.8452 0 28.4423C0 36.0394 2.95844 43.182 8.3306 48.554C13.7026 53.9262 20.8452 56.8846 28.4423 56.8846C36.0394 56.8846 43.182 53.9262 48.554 48.554C53.9261 43.1819 56.8846 36.0394 56.8846 28.4423C56.8846 20.8452 53.9262 13.7026 48.554 8.3306ZM28.4423 55.0883C13.7496 55.0883 1.79631 43.135 1.79631 28.4423C1.79631 13.7496 13.7496 1.79631 28.4423 1.79631C43.135 1.79631 55.0883 13.7496 55.0883 28.4423C55.0883 43.135 43.135 55.0883 28.4423 55.0883Z" fill="#BF7691"/>
<path d="M37.8474 12.1636H19.0396C15.2487 12.1636 12.1648 15.2476 12.1648 19.0384V37.8464C12.1648 41.637 15.2488 44.7211 19.0396 44.7211H37.8476C41.6382 44.7211 44.7223 41.637 44.7223 37.8463V19.0384C44.7222 15.2475 41.6382 12.1636 37.8474 12.1636ZM43.0668 37.8462C43.0668 40.7241 40.7253 43.0656 37.8474 43.0656H19.0396C16.1616 43.0656 13.8202 40.7241 13.8202 37.8462V19.0384C13.8202 16.1604 16.1616 13.819 19.0396 13.819H37.8476C40.7254 13.819 43.0669 16.1604 43.0669 19.0384V37.8462H43.0668Z" fill="#BF7691"/>
<path d="M36.9826 27.9529C36.7378 23.598 33.194 20.0945 28.8367 19.898C23.8086 19.6714 19.6694 23.8126 19.899 28.8413C20.0982 33.199 23.6045 36.741 27.9599 36.9822C29.7979 37.0841 31.5191 36.6006 32.9568 35.703C33.4046 35.4234 33.4776 34.8005 33.1043 34.4273C33.1003 34.4233 33.0964 34.4194 33.0925 34.4156C32.8205 34.1434 32.3985 34.1023 32.0716 34.3055C30.9974 34.973 29.7277 35.3541 28.3694 35.3398C24.5345 35.2995 21.4402 32.0794 21.5482 28.2457C21.6568 24.3876 24.949 21.3118 28.8851 21.5585C32.2768 21.771 35.0376 24.4755 35.317 27.8625C35.4308 29.2422 35.1341 30.5457 34.5378 31.6669C34.3672 31.988 34.4198 32.3818 34.6769 32.6389C34.6811 32.6431 34.6854 32.6474 34.6896 32.6516C35.0759 33.0379 35.7292 32.9471 35.9874 32.4657C36.7022 31.1319 37.0746 29.5887 36.9826 27.9529Z" fill="#BF7691"/>
<path d="M37.2725 20.7168C38.4915 20.7168 39.4798 19.7286 39.4798 18.5095C39.4798 17.2905 38.4915 16.3022 37.2725 16.3022C36.0534 16.3022 35.0652 17.2905 35.0652 18.5095C35.0652 19.7286 36.0534 20.7168 37.2725 20.7168Z" fill="#BF7691"/>
</symbol>

<symbol id="icon-youtube" width="58" height="57" viewBox="0 0 58 57" fill="none">
<path d="M48.9385 8.3306C43.5665 2.95844 36.4239 0 28.8268 0C21.2297 0 14.0872 2.95844 8.71523 8.3306C3.34297 13.7026 0.384521 20.8452 0.384521 28.4423C0.384521 36.0394 3.34297 43.182 8.71523 48.554C14.0872 53.9262 21.2297 56.8846 28.8268 56.8846C36.4239 56.8846 43.5665 53.9262 48.9385 48.554C54.3106 43.1819 57.2691 36.0394 57.2691 28.4423C57.2691 20.8452 54.3107 13.7026 48.9385 8.3306ZM28.8268 55.0883C14.1342 55.0883 2.18083 43.135 2.18083 28.4423C2.18083 13.7496 14.1342 1.79631 28.8268 1.79631C43.5195 1.79631 55.4728 13.7496 55.4728 28.4423C55.4728 43.135 43.5195 55.0883 28.8268 55.0883Z" fill="#BF7691"/>
<path d="M47.5615 16.7228C47.3652 15.3781 46.2811 14.3316 44.9252 14.1781C34.2432 12.9679 23.4108 12.968 12.7289 14.1781C11.3729 14.3317 10.2889 15.3781 10.0924 16.7229C8.95747 24.4986 8.95747 32.3839 10.0924 40.1598C10.2888 41.5045 11.3729 42.551 12.7288 42.7045C18.0699 43.3096 23.4483 43.6123 28.8269 43.6123C31.1166 43.6123 33.4062 43.5568 35.6928 43.4469C36.1333 43.4257 36.4792 43.0606 36.4792 42.6196C36.4792 42.1462 36.0827 41.7709 35.6099 41.7935C28.0412 42.1563 20.4403 41.9122 12.915 41.0595C12.3055 40.9905 11.8182 40.5221 11.7306 39.9205C10.6187 32.3034 10.6187 24.579 11.7305 16.962C11.8183 16.3604 12.3055 15.892 12.9151 15.823C18.1942 15.225 23.5105 14.9259 28.8269 14.9259C34.1434 14.9259 39.4597 15.2249 44.7389 15.823C45.3484 15.892 45.8357 16.3605 45.9233 16.962C47.0352 24.5791 47.0352 32.3035 45.9234 39.9205C45.8356 40.5222 45.3484 40.9905 44.7389 41.0595C44.7389 41.0595 44.7389 41.0595 44.7388 41.0595C43.0367 41.2523 41.3305 41.414 39.6218 41.5445C39.1899 41.5775 38.8557 41.936 38.8557 42.3691V42.3699C38.8557 42.8509 39.2646 43.2322 39.744 43.1955C41.4741 43.0634 43.2015 42.8996 44.9251 42.7044C46.2811 42.5508 47.365 41.5044 47.5615 40.1596C48.6965 32.384 48.6965 24.4986 47.5615 16.7228Z" fill="#BF7691"/>
<path d="M38.0409 27.7101L23.6935 20.1741C23.437 20.0393 23.1286 20.0485 22.8806 20.1985C22.6325 20.3484 22.481 20.617 22.481 20.9069V35.9788C22.481 36.2687 22.6325 36.5374 22.8806 36.6873C23.0119 36.7666 23.1601 36.8066 23.3087 36.8066C23.4406 36.8066 23.5728 36.775 23.6935 36.7116L38.0409 29.1756C38.3132 29.0326 38.4838 28.7504 38.4838 28.4428C38.4838 28.1352 38.3132 27.8532 38.0409 27.7101ZM24.1364 34.6092V22.2767L35.876 28.4429L24.1364 34.6092Z" fill="#BF7691"/>
</symbol>

<symbol id="icon-telegram" width="58" height="57" viewBox="0 0 58 57" fill="none">
<path d="M49.3233 8.44583C43.9513 3.07368 36.8087 0.115234 29.2116 0.115234C21.6145 0.115234 14.4719 3.07368 9.09988 8.44583C3.72773 13.8179 0.769287 20.9604 0.769287 28.5575C0.769287 36.1546 3.72773 43.2972 9.09988 48.6693C14.4719 54.0414 21.6145 56.9999 29.2116 56.9999C36.8087 56.9999 43.9513 54.0414 49.3233 48.6693C54.6954 43.2971 57.6539 36.1546 57.6539 28.5575C57.6539 20.9604 54.6955 13.8179 49.3233 8.44583ZM29.2116 55.2035C14.5189 55.2035 2.5656 43.2502 2.5656 28.5575C2.5656 13.8649 14.5189 1.91154 29.2116 1.91154C43.9043 1.91154 55.8576 13.8649 55.8576 28.5575C55.8576 43.2502 43.9043 55.2035 29.2116 55.2035Z" fill="#BF7691"/>
<path d="M44.1391 12.5508C43.885 12.3593 43.5435 12.3307 43.2609 12.4769L11.2552 29.0315C10.9785 29.1745 10.8056 29.4609 10.8076 29.7724C10.8097 30.0838 10.9865 30.3678 11.2652 30.5071L19.6369 34.6928V42.9869C19.6369 43.204 19.7108 43.4188 19.8601 43.5763C20.0254 43.7507 20.245 43.8381 20.4647 43.8381C20.6032 43.8381 20.7416 43.8035 20.8668 43.7339L30.4447 38.4129L37.7754 41.5546C37.9314 41.6214 38.104 41.6491 38.2709 41.618C38.6144 41.5538 38.8698 41.2906 38.9349 40.9655L40.7896 31.6915C40.892 31.1792 40.5003 30.7014 39.9779 30.7014C39.5833 30.7012 39.2437 30.9796 39.1663 31.3665L37.5115 39.6403L30.7236 36.7312C30.4884 36.6304 30.2195 36.6442 29.9955 36.7684L21.2925 41.6035V34.1811C21.2925 33.8676 21.1153 33.5811 20.8349 33.4408L13.4613 29.7541L42.4917 14.7383L39.9724 27.3345C39.87 27.8468 40.2617 28.3246 40.7841 28.3246C41.1786 28.3246 41.5183 28.046 41.5959 27.6592L44.4528 13.3742C44.5152 13.0623 44.3932 12.7422 44.1391 12.5508Z" fill="#BF7691"/>
<path d="M38.7733 19.3206C38.5131 18.9913 38.0475 18.9086 37.6899 19.1288L23.3426 27.958C23.0978 28.1086 22.9487 28.3755 22.9487 28.6629V37.4921C22.9486 37.8761 23.2126 38.2095 23.5861 38.2977C23.6497 38.3128 23.7135 38.32 23.7765 38.32C24.0844 38.32 24.3742 38.1474 24.5166 37.8624L27.7675 31.3607L38.709 20.4191C39.0058 20.1222 39.0335 19.6501 38.7733 19.3206ZM26.5019 30.2849C26.4392 30.3477 26.3867 30.4204 26.347 30.5L24.6042 33.9856V29.1254L32.5532 24.2336L26.5019 30.2849Z" fill="#BF7691"/>
</symbol>

<symbol id="icon-comment" width="24" height="24" viewBox="0 0 24 24" fill="none">
<path d="M5 21V16.843C3.75 15.383 3 13.524 3 11.5C3 6.806 7.03 3 12 3C16.97 3 21 6.806 21 11.5C21 16.194 16.97 20 12 20C10.338 20.0053 8.70464 19.5676 7.268 18.732L5 21ZM12 18C15.866 18 19 15.09 19 11.5C19 7.91 15.866 5 12 5C8.134 5 5 7.91 5 11.5C5 15.09 8.134 18 12 18Z" fill="white"/>
</symbol>

<symbol id="icon-like" width="24" height="24" viewBox="0 0 24 24" fill="none">
<path fill-rule="evenodd" clip-rule="evenodd" d="M12 20C9.795 19.52 3 15.76 3 9C3 7.95059 3.33019 6.92778 3.94379 6.07645C4.55739 5.22512 5.4233 4.58844 6.41886 4.25658C7.41442 3.92473 8.48916 3.91453 9.49084 4.22743C10.4925 4.54033 11.3704 5.16047 12 6C12.6296 5.16047 13.5075 4.54033 14.5092 4.22743C15.5108 3.91453 16.5856 3.92473 17.5811 4.25658C18.5767 4.58844 19.4426 5.22512 20.0562 6.07645C20.6698 6.92778 21 7.95059 21 9C21 15.76 14.205 19.52 12 20ZM12 18C15.12 17.07 19 13.195 19 9C19 8.20435 18.6839 7.44129 18.1213 6.87868C17.5587 6.31607 16.7956 6 16 6C14.695 6 13.362 6.833 12 8.5C10.638 6.833 9.305 6 8 6C7.20435 6 6.44129 6.31607 5.87868 6.87868C5.31607 7.44129 5 8.20435 5 9C5 13.195 8.88 17.07 12 18Z" fill="white"/>
</symbol>
</defs>
</svg>